<?xml version="1.0" encoding="iso-8859-1"?>
<!-- Generator: Adobe Illustrator 18.0.0, SVG Export Plug-In . SVG Version: 6.00 Build 0)  -->
<!DOCTYPE svg PUBLIC "-//W3C//DTD SVG 1.1//EN" "http://www.w3.org/Graphics/SVG/1.1/DTD/svg11.dtd">
<svg xmlns="http://www.w3.org/2000/svg" xmlns:xlink="http://www.w3.org/1999/xlink" version="1.1" id="Capa_1" x="0px" y="0px" viewBox="0 0 58 58" style="enable-background:new 0 0 58 58;" xml:space="preserve" width="512px" height="512px">
<path d="M33.633,58h-9.264c-1.857,0-3.368-1.511-3.368-3.368v-7.266c0-0.848-0.713-1.372-1.373-1.372  c-0.254,0-0.497,0.072-0.723,0.213l-7.378,4.623c-0.537,0.336-1.155,0.514-1.786,0.514c-1.169,0-2.237-0.591-2.857-1.581  l-4.918-7.851c-0.478-0.762-0.63-1.665-0.428-2.542c0.201-0.877,0.732-1.623,1.494-2.101l8.887-5.567  c0.408-0.255,0.643-0.678,0.643-1.159s-0.234-0.904-0.642-1.159l-8.888-5.567c-0.762-0.478-1.293-1.224-1.494-2.101  c-0.202-0.877-0.05-1.78,0.428-2.542l4.918-7.85c0.62-0.99,1.688-1.581,2.857-1.581c0.632,0,1.249,0.178,1.786,0.514l7.379,4.623  c0.225,0.141,0.468,0.213,0.722,0.213c0.66,0,1.373-0.524,1.373-1.372V3.368C21.001,1.511,22.512,0,24.369,0h9.264  c1.857,0,3.368,1.511,3.368,3.368v10.297c0,0.486,0.226,0.803,0.415,0.984c0.448,0.427,1.151,0.514,1.692,0.167l7.35-4.718  c0.544-0.35,1.173-0.535,1.817-0.535c1.169,0,2.237,0.591,2.856,1.581l4.904,7.828c0.985,1.574,0.507,3.656-1.066,4.643l-9.211,5.77  c-0.408,0.255-0.642,0.678-0.642,1.159s0.233,0.904,0.642,1.16l9.211,5.77c1.573,0.986,2.052,3.069,1.066,4.643l-4.898,7.818  c-0.62,0.99-1.688,1.581-2.856,1.581l0,0c-0.65,0-1.283-0.188-1.831-0.543l-7.336-4.76c-0.229-0.149-0.479-0.225-0.739-0.225  c-0.66,0-1.374,0.525-1.374,1.373v7.272C37.001,56.489,35.49,58,33.633,58z" fill="#f05b4a"/>
<g>
</g>
<g>
</g>
<g>
</g>
<g>
</g>
<g>
</g>
<g>
</g>
<g>
</g>
<g>
</g>
<g>
</g>
<g>
</g>
<g>
</g>
<g>
</g>
<g>
</g>
<g>
</g>
<g>
</g>
</svg>
