<?xml version="1.0" encoding="iso-8859-1"?>
<!-- Generator: Adobe Illustrator 16.0.0, SVG Export Plug-In . SVG Version: 6.00 Build 0)  -->
<!DOCTYPE svg PUBLIC "-//W3C//DTD SVG 1.1//EN" "http://www.w3.org/Graphics/SVG/1.1/DTD/svg11.dtd">
<svg xmlns="http://www.w3.org/2000/svg" xmlns:xlink="http://www.w3.org/1999/xlink" version="1.1" id="Capa_1" x="0px" y="0px" width="512px" height="512px" viewBox="0 0 41.482 41.482" style="enable-background:new 0 0 41.482 41.482;" xml:space="preserve">
<g>
	<path d="M19.88,10.585c0-1.029,0.834-1.861,1.861-1.861c1.026,0,1.86,0.832,1.86,1.861c0,1.027-0.834,1.861-1.86,1.861   C20.714,12.447,19.88,11.613,19.88,10.585z M14.243,19.704c-1.198,0-2.173,0.977-2.173,2.176c0,1.199,0.975,2.174,2.173,2.174   c1.199,0,2.175-0.975,2.175-2.174C16.418,20.681,15.442,19.704,14.243,19.704z M41.482,25.234c0,2.862-1.786,5.297-4.25,6.137   c-3.158,6.007-9.469,9.882-16.461,9.882c-6.988,0-13.288-3.865-16.448-9.857C1.822,30.579,0,28.125,0,25.235   c0-2.068,0.934-3.914,2.382-5.096c0.066-0.604,0.156-1.241,0.266-1.881c-0.653-0.104-1.045-0.18-1.099-0.19   c-0.44-0.086-0.768-0.455-0.803-0.902c-0.01-0.133-0.81-12.976,16.713-16.56c1.223-0.25,2.398-0.377,3.492-0.377   c3.443,0,5.891,1.252,7.13,3.6c0.158-0.112,0.32-0.223,0.494-0.315c3.134-1.709,7.657,0.549,10.104,5.037   c1.979,3.639,1.988,7.625,0.254,9.914c0.097,0.592,0.177,1.176,0.236,1.729C40.577,21.378,41.482,23.197,41.482,25.234z    M16.866,10.585c0,2.691,2.183,4.875,4.875,4.875c2.69,0,4.875-2.184,4.875-4.875c0-2.693-2.185-4.875-4.875-4.875   C19.049,5.71,16.866,7.892,16.866,10.585z M37.482,25.234c0-1.271-0.846-2.304-1.934-2.427c-0.312,0.515-0.664,1.009-1.058,1.48   c0.379-1.301,0.588-2.635,0.616-3.962c-2.258-0.006-4.749-1.424-6.616-3.826c-0.446,0.181-0.919,0.357-1.433,0.531   c-3.971,1.344-8.708,2.024-14.082,2.024c-2.382,0-4.558-0.135-6.357-0.305c-0.1,0.555-0.183,1.115-0.247,1.668   c0.036,1.298,0.243,2.601,0.614,3.87c-0.394-0.475-0.746-0.969-1.057-1.482c-1.088,0.123-1.934,1.154-1.934,2.427   c0,1.354,0.956,2.45,2.146,2.45c0.297,0,0.578-0.067,0.836-0.188c0.469,1.367,1.146,2.644,1.986,3.789   c2.943-1.81,7.119-2.946,11.773-2.946c4.673,0,8.876,1.143,11.819,2.965c0.844-1.148,1.521-2.42,1.994-3.787   c0.242,0.106,0.506,0.172,0.781,0.172C36.527,27.685,37.482,26.591,37.482,25.234z M27.239,19.704   c-1.199,0-2.175,0.977-2.175,2.176c0,1.199,0.976,2.174,2.175,2.174c1.196,0,2.173-0.975,2.173-2.174   C29.412,20.681,28.436,19.704,27.239,19.704z M20.742,25.351c-1.524,0-2.76,0.492-2.76,1.104c0,0.609,1.235,1.104,2.76,1.104   c1.521,0,2.758-0.494,2.758-1.104S22.264,25.351,20.742,25.351z" fill="#f2f2f2"/>
</g>
<g>
</g>
<g>
</g>
<g>
</g>
<g>
</g>
<g>
</g>
<g>
</g>
<g>
</g>
<g>
</g>
<g>
</g>
<g>
</g>
<g>
</g>
<g>
</g>
<g>
</g>
<g>
</g>
<g>
</g>
</svg>
