<?xml version="1.0" encoding="iso-8859-1"?>
<!-- Generator: Adobe Illustrator 19.0.0, SVG Export Plug-In . SVG Version: 6.00 Build 0)  -->
<svg xmlns="http://www.w3.org/2000/svg" xmlns:xlink="http://www.w3.org/1999/xlink" version="1.1" id="Capa_1" x="0px" y="0px" viewBox="0 0 489.8 489.8" style="enable-background:new 0 0 489.8 489.8;" xml:space="preserve" width="512px" height="512px">
<g>
	<g>
		<g>
			<circle cx="244.95" cy="76.2" r="76.2" fill="#f2f2f2"/>
			<path d="M244.95,188.2c-97.2,0-176.1,29.5-176.1,126.7v174.9h53.6c0.4-60.2,4.7-156.6,28.8-188.1v188.1h187.3V301.6     c24.1,31.5,28.4,128.3,28.8,188.1h53.6V314.9C421.05,217.7,342.15,188.2,244.95,188.2z M244.95,393c0,0-54-43.9-54-65.3     c0-15.9,12.8-28.8,28.8-28.8c10.9,0,20.6,6.2,25.3,15.5c4.7-8.9,14.4-15.5,25.3-15.5c15.9,0,28.8,12.8,28.8,28.8     C298.95,350.2,244.95,393,244.95,393z" fill="#f2f2f2"/>
		</g>
	</g>
</g>
<g>
</g>
<g>
</g>
<g>
</g>
<g>
</g>
<g>
</g>
<g>
</g>
<g>
</g>
<g>
</g>
<g>
</g>
<g>
</g>
<g>
</g>
<g>
</g>
<g>
</g>
<g>
</g>
<g>
</g>
</svg>
